<svg version="1.2" xmlns="http://www.w3.org/2000/svg" viewBox="240 212 600 660" width="600" height="660">
  <defs>
    <linearGradient id="g1" x2="1" gradientUnits="userSpaceOnUse" gradientTransform="matrix(295,0,0,305,567,714.5)">
      <stop offset="0" stop-color="#6f6bf2"/>
      <stop offset=".25" stop-color="#7b62d9"/>
      <stop offset=".747" stop-color="#bf4e98"/>
      <stop offset="1" stop-color="#f24472"/>
    </linearGradient>
  </defs>
  <style>
    .s0 { fill: #ffffff }
    .s1 { fill: url(#g1) }
  </style>
  <path class="s0" d="m322.9 865h-77.9v-290.3h69.2l7.3 53.4q10.9-18.9 26.2-31.8 15.9-13.9 36.3-20.8 20.9-7.7 45.6-7.7v82.1h-26.5q-17.4 0-32.3 4.1-14.6 3.8-25.4 13.2-10.8 8.8-16.7 24.8-5.8 15.3-5.8 38.7z"/>
  <path class="s0" d="m483.8 507h-238.7v-62.4l146.3-163.6h-144.4v-64.3h233.9v62.4l-147.9 163.5h150.8z"/>
  <path class="s0" d="m717.5 516.9q-43.9 0-77.7-18.4-33.3-19.2-52.5-52.5-18.5-34.2-18.5-78.5 0-45.4 18.5-80.1 18.7-35 51.9-54.7 33.8-19.9 78.4-19.9 43.3 0 75.5 19.3 32.4 18.3 50.2 50.7 18.1 32.3 18.1 73.5 0 5.8-0.2 13-0.1 6.9-1 14.6h-235.8v-47.6h158.3q-1.5-27.8-20.1-43.7-17.7-16.9-44.8-16.9-19.9 0-36.5 9.4-16.5 8.9-26.6 27.7-9.2 17.8-9.2 45.9v16.8q0 23.7 8.7 41.7 9.3 17 25.3 27.1 16.3 9 37.3 9 21.8 0 35.4-8.5 14.2-9.5 21.6-24.3h79.3q-8.1 27.1-27.7 49.1-18.5 21.8-46.1 34.6-27.5 12.7-61.8 12.7z"/>
  <path class="s1" d="m714.4 866.9q-41.6 0-75.1-19-33.1-19.7-52.4-53.6-19.1-34.9-19.1-79.3 0-45.1 19.1-79.3 19.5-34.4 52.4-53.6 34-19.3 75.6-19.3 42.2 0 74.9 19.3 33.7 19.2 52.5 53.6 19.6 34.1 19.6 79.3 0 44.6-19.6 79.3-19 33.9-52.5 53.6-33.2 19-75.4 19zm0.1-67.2q19.3 0 34.4-9.5 15.4-9.5 24.2-28.2 9.5-19.2 9.5-47.2 0-28.2-9.5-46.8-8.5-19.1-24.2-28.3-14.8-9.7-33.8-9.7-18.6 0-34.3 9.7-15.3 9.2-24.7 28.3-9 18.7-9 46.9 0 27.8 9 47.1 9.4 18.7 24.2 28.2 15.7 9.5 34.2 9.5z"/>
</svg>
